<svg width="2160" height="3840" viewBox="0 0 2160 3840" fill="none" xmlns="http://www.w3.org/2000/svg">
<mask id="mask0_2_87" style="mask-type:alpha" maskUnits="userSpaceOnUse" x="0" y="0" width="2160" height="3840">
<rect x="0.5" y="0.5" width="2159" height="3839" fill="#D9D9D9" stroke="black"/>
</mask>
<g mask="url(#mask0_2_87)">
<path d="M1972 2520C2303.37 2520 2572 2251.37 2572 1920C2572 1588.63 2303.37 1320 1972 1320C1640.63 1320 1372 1588.63 1372 1920C1372 2251.37 1640.63 2520 1972 2520Z" fill="#37446A"/>
<path d="M380 4090C711.371 4090 980 3821.37 980 3490C980 3158.63 711.371 2890 380 2890C48.6292 2890 -220 3158.63 -220 3490C-220 3821.37 48.6292 4090 380 4090Z" fill="#727EA9"/>
<path d="M430 2245C609.493 2245 755 2099.49 755 1920C755 1740.51 609.493 1595 430 1595C250.507 1595 105 1740.51 105 1920C105 2099.49 250.507 2245 430 2245Z" fill="#546089"/>
<path d="M1697 977C1876.49 977 2022 831.493 2022 652C2022 472.507 1876.49 327 1697 327C1517.51 327 1372 472.507 1372 652C1372 831.493 1517.51 977 1697 977Z" fill="#223155"/>
<path d="M1697 3513C1876.49 3513 2022 3367.49 2022 3188C2022 3008.51 1876.49 2863 1697 2863C1517.51 2863 1372 3008.51 1372 3188C1372 3367.49 1517.51 3513 1697 3513Z" fill="#546089"/>
<path d="M380 850C711.371 850 980 581.371 980 250C980 -81.3708 711.371 -350 380 -350C48.6292 -350 -220 -81.3708 -220 250C-220 581.371 48.6292 850 380 850Z" fill="#001435"/>
</g>
</svg>
